<?xml version="1.0" encoding="UTF-8" standalone="no"?>
<svg
   xmlns:dc="http://purl.org/dc/elements/1.1/"
   xmlns:cc="http://creativecommons.org/ns#"
   xmlns:rdf="http://www.w3.org/1999/02/22-rdf-syntax-ns#"
   xmlns:svg="http://www.w3.org/2000/svg"
   xmlns="http://www.w3.org/2000/svg"
   width="160.56284mm"
   height="73.338684mm"
   viewBox="0 0 568.92344 259.86147"
   id="svg2"
   version="1.1">
  <defs
     id="defs4" />
  <metadata
     id="metadata7">
    <rdf:RDF>
      <cc:Work
         rdf:about="">
        <dc:format>image/svg+xml</dc:format>
        <dc:type
           rdf:resource="http://purl.org/dc/dcmitype/StillImage" />
        <dc:title></dc:title>
      </cc:Work>
    </rdf:RDF>
  </metadata>
  <g
     transform="translate(1.7558789,-15.46796)"
     style="display:inline"
     id="layer2">
    <g
       transform="matrix(1.1669755,-0.44795994,0.44795994,1.1669755,-17.842096,139.81369)"
       id="surface286818">
      <path
         style="fill:none;stroke:#000000;stroke-width:0.3985;stroke-linecap:butt;stroke-linejoin:miter;stroke-miterlimit:10;stroke-opacity:1"
         d="m 5.9375e-4,2.8125e-4 109.39062625,0 c 62.10547,0 121.3164,-26.36328125 162.875,-72.51953125 l 82.66406,-91.80469"
         transform="matrix(1,0,0,-1,44.433,50.012)"
         id="path5036" />
      <path
         style="fill:none;stroke:#000000;stroke-width:0.3985;stroke-linecap:butt;stroke-linejoin:miter;stroke-miterlimit:10;stroke-opacity:1"
         d="m 5.9375e-4,2.8125e-4 0,39.85156275 109.39062625,0 c 73.39844,0 143.375,-31.160156 192.49219,-85.707031 l 82.66015,-91.804683 -29.62109,-26.66016"
         transform="matrix(1,0,0,-1,44.433,50.012)"
         id="path5038" />
      <path
         style="fill:#ffd7b0;fill-opacity:1;fill-rule:nonzero;stroke:#000000;stroke-width:0.3985;stroke-linecap:butt;stroke-linejoin:miter;stroke-miterlimit:10;stroke-dasharray:9.96277, 4.98138;stroke-opacity:1"
         d="m 9.961531,7.969031 99.429689,0 c 64.36719,0 125.73047,-27.324218 168.80078,-75.15625 l 48.66406,-54.046871 17.76563,16 -48.66407,54.046871 C 248.35606,1.679969 180.53184,31.879188 109.39122,31.879188 l -99.429689,0 z m 0,0"
         transform="matrix(1,0,0,-1,44.433,50.012)"
         id="path5040" />
      <path
         style="fill:none;stroke:#000000;stroke-width:0.3985;stroke-linecap:butt;stroke-linejoin:miter;stroke-miterlimit:10;stroke-dasharray:4.98138, 1.99255, 0.3985, 1.99255;stroke-opacity:1"
         d="m 5.9375e-4,19.926063 109.39062625,0 c 29.28515,0 58.34375,-5.386719 85.68359,-15.882813 35.21875,-13.519531 66.76172,-35.199219 92,-63.230469 l 82.66016,-91.804691"
         transform="matrix(1,0,0,-1,44.433,50.012)"
         id="path5042" />
      <path
         style="fill:#cacaca;fill-opacity:1;fill-rule:nonzero;stroke:#000000;stroke-width:0.3985;stroke-linecap:butt;stroke-linejoin:miter;stroke-miterlimit:10;stroke-opacity:1"
         d="m 363.14903,-125.81222 -18.53125,20.58203 -17.76953,-16 18.53516,-20.58203 z m 0,0"
         transform="matrix(1,0,0,-1,44.433,50.012)"
         id="path5044" />
      <path
         style="fill:#979797;fill-opacity:1;fill-rule:nonzero;stroke:#000000;stroke-width:0.3985;stroke-linecap:butt;stroke-linejoin:miter;stroke-miterlimit:10;stroke-opacity:1"
         d="m 375.14512,-139.13644 -12,13.32422 -17.76953,-16 12,-13.32422 -5.92187,-5.33203 3.46875,-3.85156 29.61719,26.66406 -3.46875,3.84766 z m 0,0"
         transform="matrix(1,0,0,-1,44.433,50.012)"
         id="path5046" />
      <path
         style="fill:#000000;fill-opacity:1;fill-rule:nonzero;stroke:none"
         d="m 251.63672,42.3125 c 0,-1.207031 -0.98438,-2.191406 -2.19531,-2.191406 -1.20704,0 -2.19141,0.984375 -2.19141,2.191406 0,1.210938 0.98437,2.195312 2.19141,2.195312 1.21093,0 2.19531,-0.984374 2.19531,-2.195312 z m 0,0"
         id="path5048" />
      <path
         style="fill:#000000;fill-opacity:1;fill-rule:nonzero;stroke:none"
         d="m 246.63672,55.335938 c 0,-1.210938 -0.98047,-2.191407 -2.19141,-2.191407 -1.21094,0 -2.1914,0.980469 -2.1914,2.191407 0,1.210937 0.98046,2.191406 2.1914,2.191406 1.21094,0 2.19141,-0.980469 2.19141,-2.191406 z m 0,0"
         id="path5050" />
      <path
         style="fill:#000000;fill-opacity:1;fill-rule:nonzero;stroke:none"
         d="m 236.75391,36.601562 c 0,-1.210937 -0.98047,-2.191406 -2.19141,-2.191406 -1.21094,0 -2.19141,0.980469 -2.19141,2.191406 0,1.210938 0.98047,2.191407 2.19141,2.191407 1.21094,0 2.19141,-0.980469 2.19141,-2.191407 z m 0,0"
         id="path5052" />
      <path
         style="fill:#000000;fill-opacity:1;fill-rule:nonzero;stroke:none"
         d="m 231.75391,49.621094 c 0,-1.207032 -0.98047,-2.191406 -2.19141,-2.191406 -1.21094,0 -2.19141,0.984374 -2.19141,2.191406 0,1.210937 0.98047,2.195312 2.19141,2.195312 1.21094,0 2.19141,-0.984375 2.19141,-2.195312 z m 0,0"
         id="path5054" />
      <path
         style="fill:#000000;fill-opacity:1;fill-rule:nonzero;stroke:none"
         d="m 84.480469,23.113281 c 0,-1.210937 -0.980469,-2.191406 -2.191407,-2.191406 -1.210937,0 -2.191406,0.980469 -2.191406,2.191406 0,1.210938 0.980469,2.191407 2.191406,2.191407 1.210938,0 2.191407,-0.980469 2.191407,-2.191407 z m 0,0"
         id="path5056" />
      <path
         style="fill:#000000;fill-opacity:1;fill-rule:nonzero;stroke:none"
         d="m 84.480469,37.0625 c 0,-1.210938 -0.980469,-2.191406 -2.191407,-2.191406 -1.210937,0 -2.191406,0.980468 -2.191406,2.191406 0,1.210938 0.980469,2.191406 2.191406,2.191406 1.210938,0 2.191407,-0.980468 2.191407,-2.191406 z m 0,0"
         id="path5058" />
      <path
         style="fill:#000000;fill-opacity:1;fill-rule:nonzero;stroke:none"
         d="m 68.542969,23.113281 c 0,-1.210937 -0.984375,-2.191406 -2.191407,-2.191406 -1.210937,0 -2.195312,0.980469 -2.195312,2.191406 0,1.210938 0.984375,2.191407 2.195312,2.191407 1.207032,0 2.191407,-0.980469 2.191407,-2.191407 z m 0,0"
         id="path5060" />
      <path
         style="fill:#000000;fill-opacity:1;fill-rule:nonzero;stroke:none"
         d="m 68.542969,37.0625 c 0,-1.210938 -0.984375,-2.191406 -2.191407,-2.191406 -1.210937,0 -2.195312,0.980468 -2.195312,2.191406 0,1.210938 0.984375,2.191406 2.195312,2.191406 1.207032,0 2.191407,-0.980468 2.191407,-2.191406 z m 0,0"
         id="path5062" />
      <path
         style="fill:none;stroke:#000000;stroke-width:0.3985;stroke-linecap:butt;stroke-linejoin:miter;stroke-miterlimit:10;stroke-dasharray:2.98883, 1.99255;stroke-opacity:1"
         d="m -6.374406,2.8125e-4 0,39.85156275 -27.898438,0 0,-39.85156275 z m 0,0"
         transform="matrix(1,0,0,-1,44.433,50.012)"
         id="path5064" />
      <path
         style="fill:none;stroke:#000000;stroke-width:0.3985;stroke-linecap:butt;stroke-linejoin:miter;stroke-miterlimit:10;stroke-dasharray:2.98883, 1.99255;stroke-opacity:1"
         d="m -14.347062,2.8125e-4 0,-69.73828125 -19.925782,0 0,69.73828125 z m 0,0"
         transform="matrix(1,0,0,-1,44.433,50.012)"
         id="path5066" />
      <path
         style="fill:none;stroke:#000000;stroke-width:0.3985;stroke-linecap:butt;stroke-linejoin:miter;stroke-miterlimit:10;stroke-dasharray:2.98883, 1.99255;stroke-opacity:1"
         d="m -14.347062,-4.980187 -19.925782,0"
         transform="matrix(1,0,0,-1,44.433,50.012)"
         id="path5068" />
      <path
         style="fill:none;stroke:#000000;stroke-width:0.3985;stroke-linecap:butt;stroke-linejoin:miter;stroke-miterlimit:10;stroke-dasharray:2.98883, 1.99255;stroke-opacity:1"
         d="m -14.347062,-9.964562 -19.925782,0"
         transform="matrix(1,0,0,-1,44.433,50.012)"
         id="path5070" />
      <path
         style="fill:none;stroke:#000000;stroke-width:0.3985;stroke-linecap:butt;stroke-linejoin:miter;stroke-miterlimit:10;stroke-dasharray:2.98883, 1.99255;stroke-opacity:1"
         d="m -14.347062,-14.945031 -19.925782,0"
         transform="matrix(1,0,0,-1,44.433,50.012)"
         id="path5072" />
      <path
         style="fill:none;stroke:#000000;stroke-width:0.3985;stroke-linecap:butt;stroke-linejoin:miter;stroke-miterlimit:10;stroke-dasharray:2.98883, 1.99255;stroke-opacity:1"
         d="m -14.347062,-19.9255 -19.925782,0"
         transform="matrix(1,0,0,-1,44.433,50.012)"
         id="path5074" />
      <path
         style="fill:none;stroke:#000000;stroke-width:0.3985;stroke-linecap:butt;stroke-linejoin:miter;stroke-miterlimit:10;stroke-dasharray:2.98883, 1.99255;stroke-opacity:1"
         d="m -14.347062,-24.905969 -19.925782,0"
         transform="matrix(1,0,0,-1,44.433,50.012)"
         id="path5076" />
      <path
         style="fill:none;stroke:#000000;stroke-width:0.3985;stroke-linecap:butt;stroke-linejoin:miter;stroke-miterlimit:10;stroke-dasharray:2.98883, 1.99255;stroke-opacity:1"
         d="m -14.347062,-29.886437 -19.925782,0"
         transform="matrix(1,0,0,-1,44.433,50.012)"
         id="path5078" />
      <path
         style="fill:none;stroke:#000000;stroke-width:0.3985;stroke-linecap:butt;stroke-linejoin:miter;stroke-miterlimit:10;stroke-dasharray:2.98883, 1.99255;stroke-opacity:1"
         d="m -14.347062,-34.870812 -19.925782,0"
         transform="matrix(1,0,0,-1,44.433,50.012)"
         id="path5080" />
      <path
         style="fill:none;stroke:#000000;stroke-width:0.3985;stroke-linecap:butt;stroke-linejoin:miter;stroke-miterlimit:10;stroke-dasharray:2.98883, 1.99255;stroke-opacity:1"
         d="m -14.347062,-39.851281 -19.925782,0"
         transform="matrix(1,0,0,-1,44.433,50.012)"
         id="path5082" />
      <path
         style="fill:none;stroke:#000000;stroke-width:0.3985;stroke-linecap:butt;stroke-linejoin:miter;stroke-miterlimit:10;stroke-dasharray:2.98883, 1.99255;stroke-opacity:1"
         d="m -14.347062,-44.83175 -19.925782,0"
         transform="matrix(1,0,0,-1,44.433,50.012)"
         id="path5084" />
      <path
         style="fill:none;stroke:#000000;stroke-width:0.3985;stroke-linecap:butt;stroke-linejoin:miter;stroke-miterlimit:10;stroke-dasharray:2.98883, 1.99255;stroke-opacity:1"
         d="m -14.347062,-49.812219 -19.925782,0"
         transform="matrix(1,0,0,-1,44.433,50.012)"
         id="path5086" />
      <path
         style="fill:none;stroke:#000000;stroke-width:0.3985;stroke-linecap:butt;stroke-linejoin:miter;stroke-miterlimit:10;stroke-dasharray:2.98883, 1.99255;stroke-opacity:1"
         d="m -14.347062,-54.792687 -19.925782,0"
         transform="matrix(1,0,0,-1,44.433,50.012)"
         id="path5088" />
      <path
         style="fill:none;stroke:#000000;stroke-width:0.3985;stroke-linecap:butt;stroke-linejoin:miter;stroke-miterlimit:10;stroke-dasharray:2.98883, 1.99255;stroke-opacity:1"
         d="m -14.347062,-59.777062 -19.925782,0"
         transform="matrix(1,0,0,-1,44.433,50.012)"
         id="path5090" />
      <path
         style="fill:none;stroke:#000000;stroke-width:0.3985;stroke-linecap:butt;stroke-linejoin:miter;stroke-miterlimit:10;stroke-dasharray:2.98883, 1.99255;stroke-opacity:1"
         d="m -14.347062,-64.757531 -19.925782,0"
         transform="matrix(1,0,0,-1,44.433,50.012)"
         id="path5092" />
      <path
         style="fill:none;stroke:#000000;stroke-width:0.3985;stroke-linecap:butt;stroke-linejoin:miter;stroke-miterlimit:10;stroke-opacity:1"
         d="m 5.9375e-4,2.8125e-4 -6.37499975,0"
         transform="matrix(1,0,0,-1,44.433,50.012)"
         id="path5094" />
      <path
         style="fill:none;stroke:#000000;stroke-width:0.3985;stroke-linecap:butt;stroke-linejoin:miter;stroke-miterlimit:10;stroke-opacity:1"
         d="m 5.9375e-4,1.594031 -6.37499975,0"
         transform="matrix(1,0,0,-1,44.433,50.012)"
         id="path5096" />
      <path
         style="fill:none;stroke:#000000;stroke-width:0.3985;stroke-linecap:butt;stroke-linejoin:miter;stroke-miterlimit:10;stroke-opacity:1"
         d="m 5.9375e-4,3.187781 -6.37499975,0"
         transform="matrix(1,0,0,-1,44.433,50.012)"
         id="path5098" />
      <path
         style="fill:none;stroke:#000000;stroke-width:0.3985;stroke-linecap:butt;stroke-linejoin:miter;stroke-miterlimit:10;stroke-opacity:1"
         d="m 5.9375e-4,4.781531 -6.37499975,0"
         transform="matrix(1,0,0,-1,44.433,50.012)"
         id="path5100" />
      <path
         style="fill:none;stroke:#000000;stroke-width:0.3985;stroke-linecap:butt;stroke-linejoin:miter;stroke-miterlimit:10;stroke-opacity:1"
         d="m 5.9375e-4,6.375281 -6.37499975,0"
         transform="matrix(1,0,0,-1,44.433,50.012)"
         id="path5102" />
      <path
         style="fill:none;stroke:#000000;stroke-width:0.3985;stroke-linecap:butt;stroke-linejoin:miter;stroke-miterlimit:10;stroke-opacity:1"
         d="m 5.9375e-4,7.969031 -6.37499975,0"
         transform="matrix(1,0,0,-1,44.433,50.012)"
         id="path5104" />
      <path
         style="fill:none;stroke:#000000;stroke-width:0.3985;stroke-linecap:butt;stroke-linejoin:miter;stroke-miterlimit:10;stroke-opacity:1"
         d="m 5.9375e-4,9.562781 -6.37499975,0"
         transform="matrix(1,0,0,-1,44.433,50.012)"
         id="path5106" />
      <path
         style="fill:none;stroke:#000000;stroke-width:0.3985;stroke-linecap:butt;stroke-linejoin:miter;stroke-miterlimit:10;stroke-opacity:1"
         d="m 5.9375e-4,11.156531 -6.37499975,0"
         transform="matrix(1,0,0,-1,44.433,50.012)"
         id="path5108" />
      <path
         style="fill:none;stroke:#000000;stroke-width:0.3985;stroke-linecap:butt;stroke-linejoin:miter;stroke-miterlimit:10;stroke-opacity:1"
         d="m 5.9375e-4,12.750281 -6.37499975,0"
         transform="matrix(1,0,0,-1,44.433,50.012)"
         id="path5110" />
      <path
         style="fill:none;stroke:#000000;stroke-width:0.3985;stroke-linecap:butt;stroke-linejoin:miter;stroke-miterlimit:10;stroke-opacity:1"
         d="m 5.9375e-4,14.347938 -6.37499975,0"
         transform="matrix(1,0,0,-1,44.433,50.012)"
         id="path5112" />
      <path
         style="fill:none;stroke:#000000;stroke-width:0.3985;stroke-linecap:butt;stroke-linejoin:miter;stroke-miterlimit:10;stroke-opacity:1"
         d="m 5.9375e-4,15.941688 -6.37499975,0"
         transform="matrix(1,0,0,-1,44.433,50.012)"
         id="path5114" />
      <path
         style="fill:none;stroke:#000000;stroke-width:0.3985;stroke-linecap:butt;stroke-linejoin:miter;stroke-miterlimit:10;stroke-opacity:1"
         d="m 5.9375e-4,17.535438 -6.37499975,0"
         transform="matrix(1,0,0,-1,44.433,50.012)"
         id="path5116" />
      <path
         style="fill:none;stroke:#000000;stroke-width:0.3985;stroke-linecap:butt;stroke-linejoin:miter;stroke-miterlimit:10;stroke-opacity:1"
         d="m 5.9375e-4,19.129188 -6.37499975,0"
         transform="matrix(1,0,0,-1,44.433,50.012)"
         id="path5118" />
      <path
         style="fill:none;stroke:#000000;stroke-width:0.3985;stroke-linecap:butt;stroke-linejoin:miter;stroke-miterlimit:10;stroke-opacity:1"
         d="m 5.9375e-4,20.722938 -6.37499975,0"
         transform="matrix(1,0,0,-1,44.433,50.012)"
         id="path5120" />
      <path
         style="fill:none;stroke:#000000;stroke-width:0.3985;stroke-linecap:butt;stroke-linejoin:miter;stroke-miterlimit:10;stroke-opacity:1"
         d="m 5.9375e-4,22.316688 -6.37499975,0"
         transform="matrix(1,0,0,-1,44.433,50.012)"
         id="path5122" />
      <path
         style="fill:none;stroke:#000000;stroke-width:0.3985;stroke-linecap:butt;stroke-linejoin:miter;stroke-miterlimit:10;stroke-opacity:1"
         d="m 5.9375e-4,23.910438 -6.37499975,0"
         transform="matrix(1,0,0,-1,44.433,50.012)"
         id="path5124" />
      <path
         style="fill:none;stroke:#000000;stroke-width:0.3985;stroke-linecap:butt;stroke-linejoin:miter;stroke-miterlimit:10;stroke-opacity:1"
         d="m 5.9375e-4,25.504188 -6.37499975,0"
         transform="matrix(1,0,0,-1,44.433,50.012)"
         id="path5126" />
      <path
         style="fill:none;stroke:#000000;stroke-width:0.3985;stroke-linecap:butt;stroke-linejoin:miter;stroke-miterlimit:10;stroke-opacity:1"
         d="m 5.9375e-4,27.097938 -6.37499975,0"
         transform="matrix(1,0,0,-1,44.433,50.012)"
         id="path5128" />
      <path
         style="fill:none;stroke:#000000;stroke-width:0.3985;stroke-linecap:butt;stroke-linejoin:miter;stroke-miterlimit:10;stroke-opacity:1"
         d="m 5.9375e-4,28.691688 -6.37499975,0"
         transform="matrix(1,0,0,-1,44.433,50.012)"
         id="path5130" />
      <path
         style="fill:none;stroke:#000000;stroke-width:0.3985;stroke-linecap:butt;stroke-linejoin:miter;stroke-miterlimit:10;stroke-opacity:1"
         d="m 5.9375e-4,30.285438 -6.37499975,0"
         transform="matrix(1,0,0,-1,44.433,50.012)"
         id="path5132" />
      <path
         style="fill:none;stroke:#000000;stroke-width:0.3985;stroke-linecap:butt;stroke-linejoin:miter;stroke-miterlimit:10;stroke-opacity:1"
         d="m 5.9375e-4,31.879188 -6.37499975,0"
         transform="matrix(1,0,0,-1,44.433,50.012)"
         id="path5134" />
      <path
         style="fill:none;stroke:#000000;stroke-width:0.3985;stroke-linecap:butt;stroke-linejoin:miter;stroke-miterlimit:10;stroke-opacity:1"
         d="m 5.9375e-4,33.472938 -6.37499975,0"
         transform="matrix(1,0,0,-1,44.433,50.012)"
         id="path5136" />
      <path
         style="fill:none;stroke:#000000;stroke-width:0.3985;stroke-linecap:butt;stroke-linejoin:miter;stroke-miterlimit:10;stroke-opacity:1"
         d="m 5.9375e-4,35.066688 -6.37499975,0"
         transform="matrix(1,0,0,-1,44.433,50.012)"
         id="path5138" />
      <path
         style="fill:none;stroke:#000000;stroke-width:0.3985;stroke-linecap:butt;stroke-linejoin:miter;stroke-miterlimit:10;stroke-opacity:1"
         d="m 5.9375e-4,36.664344 -6.37499975,0"
         transform="matrix(1,0,0,-1,44.433,50.012)"
         id="path5140" />
      <path
         style="fill:none;stroke:#000000;stroke-width:0.3985;stroke-linecap:butt;stroke-linejoin:miter;stroke-miterlimit:10;stroke-opacity:1"
         d="m 5.9375e-4,38.258094 -6.37499975,0"
         transform="matrix(1,0,0,-1,44.433,50.012)"
         id="path5142" />
      <path
         style="fill:none;stroke:#000000;stroke-width:0.3985;stroke-linecap:butt;stroke-linejoin:miter;stroke-miterlimit:10;stroke-opacity:1"
         d="m 5.9375e-4,39.851844 -6.37499975,0"
         transform="matrix(1,0,0,-1,44.433,50.012)"
         id="path5144" />
      <path
         style="fill:none;stroke:#000000;stroke-width:0.3985;stroke-linecap:butt;stroke-linejoin:miter;stroke-miterlimit:10;stroke-opacity:1"
         d="m 5.9375e-4,2.8125e-4 0,39.85156275"
         transform="matrix(1,0,0,-1,44.433,50.012)"
         id="path5146" />
      <path
         style="fill:none;stroke:#000000;stroke-width:0.3985;stroke-linecap:butt;stroke-linejoin:miter;stroke-miterlimit:10;stroke-opacity:1"
         d="m -1.593156,2.8125e-4 0,39.85156275"
         transform="matrix(1,0,0,-1,44.433,50.012)"
         id="path5148" />
      <path
         style="fill:none;stroke:#000000;stroke-width:0.3985;stroke-linecap:butt;stroke-linejoin:miter;stroke-miterlimit:10;stroke-opacity:1"
         d="m -3.186906,2.8125e-4 0,39.85156275"
         transform="matrix(1,0,0,-1,44.433,50.012)"
         id="path5150" />
      <path
         style="fill:none;stroke:#000000;stroke-width:0.3985;stroke-linecap:butt;stroke-linejoin:miter;stroke-miterlimit:10;stroke-opacity:1"
         d="m -4.780656,2.8125e-4 0,39.85156275"
         transform="matrix(1,0,0,-1,44.433,50.012)"
         id="path5152" />
      <path
         style="fill:none;stroke:#000000;stroke-width:0.3985;stroke-linecap:butt;stroke-linejoin:miter;stroke-miterlimit:10;stroke-opacity:1"
         d="m -6.374406,2.8125e-4 0,39.85156275"
         transform="matrix(1,0,0,-1,44.433,50.012)"
         id="path5154" />
    </g>
  </g>
  <g
     transform="translate(1.7558789,-15.46796)"
     style="display:inline"
     id="layer3">
    <g
       id="all-sensors"
       transform="translate(-48.197975,-210.43364)">
      <ellipse
         ry="4.311522"
         rx="4.3226075"
         cy="346.30203"
         cx="106.75555"
         id="position1"
         style="fill:#ff0000;fill-rule:evenodd;stroke:#000000;stroke-width:1px;stroke-linecap:butt;stroke-linejoin:miter;stroke-opacity:1" />
      <ellipse
         ry="4.311522"
         rx="4.3226075"
         cy="358.69586"
         cx="111.39174"
         id="position2"
         style="fill:#ff0000;fill-rule:evenodd;stroke:#000000;stroke-width:1px;stroke-linecap:butt;stroke-linejoin:miter;stroke-opacity:1" />
      <ellipse
         ry="4.311522"
         rx="4.3226075"
         cy="371.22934"
         cx="116.73377"
         id="position3"
         style="fill:#ff0000;fill-rule:evenodd;stroke:#000000;stroke-width:1px;stroke-linecap:butt;stroke-linejoin:miter;stroke-opacity:1" />
      <ellipse
         ry="4.311522"
         rx="4.3226075"
         cy="281.9404"
         cx="332.11771"
         id="position5"
         style="fill:#ff0000;fill-rule:evenodd;stroke:#000000;stroke-width:1px;stroke-linecap:butt;stroke-linejoin:miter;stroke-opacity:1" />
      <ellipse
         ry="4.311522"
         rx="4.3226075"
         cy="355.00128"
         cx="552.79651"
         id="position6"
         style="fill:#ff0000;fill-rule:evenodd;stroke:#000000;stroke-width:1px;stroke-linecap:butt;stroke-linejoin:miter;stroke-opacity:1" />
      <ellipse
         ry="4.311522"
         rx="4.3226075"
         cy="368.70276"
         cx="545.73346"
         id="position7"
         style="fill:#ff0000;fill-rule:evenodd;stroke:#000000;stroke-width:1px;stroke-linecap:butt;stroke-linejoin:miter;stroke-opacity:1" />
      <ellipse
         ry="4.311522"
         rx="4.3226075"
         cy="382.68018"
         cx="538.67053"
         id="position8"
         style="fill:#ff0000;fill-rule:evenodd;stroke:#000000;stroke-width:1px;stroke-linecap:butt;stroke-linejoin:miter;stroke-opacity:1" />
      <ellipse
         ry="4.311522"
         rx="4.3226075"
         cy="311.62503"
         cx="329.86676"
         id="position4"
         style="fill:#ff0000;fill-rule:evenodd;stroke:#000000;stroke-width:1px;stroke-linecap:butt;stroke-linejoin:miter;stroke-opacity:1" />
    </g>
    <circle
       style="fill:#ff0000;fill-rule:evenodd;stroke:#000000;stroke-width:1px;stroke-linecap:butt;stroke-linejoin:miter;stroke-opacity:1"
       id="group1"
       cx="32.63179"
       cy="23.46796"
       r="7.5" />
    <circle
       style="fill:#44aa00;fill-rule:evenodd;stroke:#000000;stroke-width:1px;stroke-linecap:butt;stroke-linejoin:miter;stroke-opacity:1"
       id="group2"
       cx="32.63179"
       cy="44.717945"
       r="7.5" />
    <circle
       style="fill:#0000ff;fill-rule:evenodd;stroke:#000000;stroke-width:1px;stroke-linecap:butt;stroke-linejoin:miter;stroke-opacity:1"
       id="group3"
       cx="32.63179"
       cy="65.967949"
       r="7.5" />
  </g>
</svg>
